<?xml version="1.0" encoding="utf-8"?>
<!-- Generator: Adobe Illustrator 16.0.0, SVG Export Plug-In . SVG Version: 6.00 Build 0)  -->
<!DOCTYPE svg PUBLIC "-//W3C//DTD SVG 1.1//EN" "http://www.w3.org/Graphics/SVG/1.1/DTD/svg11.dtd">
<svg version="1.1" id="레이어_1" xmlns="http://www.w3.org/2000/svg" xmlns:xlink="http://www.w3.org/1999/xlink" x="0px"
	 y="0px" width="57.146px" height="57.147px" viewBox="269.066 249.96 57.146 57.147"
	 enable-background="new 269.066 249.96 57.146 57.147" xml:space="preserve">
<path fill="#333333" d="M312.533,277.046h-13.406V263.64c0-0.822-0.666-1.488-1.488-1.488s-1.488,0.666-1.488,1.488v13.406h-13.406
	c-0.822,0-1.488,0.666-1.488,1.488c0,0.822,0.666,1.488,1.488,1.488h13.406v13.406c0,0.822,0.666,1.488,1.488,1.488
	s1.488-0.666,1.488-1.488v-13.406h13.406c0.822,0,1.488-0.667,1.488-1.488C314.022,277.712,313.355,277.046,312.533,277.046z
	 M297.639,249.96c-15.756,0-28.573,12.818-28.573,28.574s12.818,28.573,28.573,28.573c15.756,0,28.573-12.817,28.573-28.573
	S313.395,249.96,297.639,249.96z M297.639,304.131c-14.114,0-25.597-11.482-25.597-25.597s11.483-25.597,25.597-25.597
	c14.114,0,25.598,11.483,25.598,25.597S311.753,304.131,297.639,304.131z"/>
</svg>
