<?xml version="1.0" encoding="utf-8"?>
<!-- Generator: Adobe Illustrator 16.0.0, SVG Export Plug-In . SVG Version: 6.00 Build 0)  -->
<!DOCTYPE svg PUBLIC "-//W3C//DTD SVG 1.1//EN" "http://www.w3.org/Graphics/SVG/1.1/DTD/svg11.dtd">
<svg version="1.1" id="레이어_1" xmlns="http://www.w3.org/2000/svg" xmlns:xlink="http://www.w3.org/1999/xlink" x="0px"
	 y="0px" width="57.146px" height="57.146px" viewBox="0 0 57.146 57.146" enable-background="new 0 0 57.146 57.146"
	 xml:space="preserve">
<path fill="#333333" d="M43.467,27.086H30.06V13.68c0-0.822-0.666-1.488-1.487-1.488c-0.822,0-1.488,0.666-1.488,1.488v13.406
	H13.678c-0.822,0-1.488,0.666-1.488,1.488c0,0.821,0.666,1.487,1.488,1.487h13.406v13.406c0,0.822,0.666,1.488,1.488,1.488
	c0.821,0,1.487-0.666,1.487-1.488V30.062h13.406c0.822,0,1.488-0.667,1.488-1.487C44.956,27.752,44.289,27.086,43.467,27.086z
	 M28.573,0C12.816,0,0,12.818,0,28.574C0,44.33,12.817,57.147,28.573,57.147S57.146,44.33,57.146,28.574
	C57.146,12.818,44.329,0,28.573,0z M28.573,54.171c-14.114,0-25.598-11.482-25.598-25.597c0-14.115,11.483-25.598,25.598-25.598
	S54.171,14.46,54.171,28.574C54.171,42.688,42.687,54.171,28.573,54.171z"/>
</svg>
