<?xml version="1.0" encoding="utf-8"?>
<!-- Generator: Adobe Illustrator 16.0.0, SVG Export Plug-In . SVG Version: 6.00 Build 0)  -->
<!DOCTYPE svg PUBLIC "-//W3C//DTD SVG 1.1//EN" "http://www.w3.org/Graphics/SVG/1.1/DTD/svg11.dtd">
<svg version="1.1" id="레이어_1" xmlns="http://www.w3.org/2000/svg" xmlns:xlink="http://www.w3.org/1999/xlink" x="0px"
	 y="0px" width="465.063px" height="401.126px" viewBox="65.109 145.981 465.063 401.126"
	 enable-background="new 65.109 145.981 465.063 401.126" xml:space="preserve">
<path d="M500.593,145.981H94.687c-16.314,0-29.578,13.264-29.578,29.578v57.24v251.673v33.057c0,16.314,13.264,29.578,29.578,29.578
	h405.906c16.314,0,29.578-13.264,29.578-29.578v-33.057V232.781V175.56C530.171,159.245,516.907,145.981,500.593,145.981z
	 M207.772,194.646c0,6.976-5.655,12.631-12.632,12.631c-6.976,0-12.612-5.655-12.612-12.631s5.655-12.631,12.631-12.631
	C202.135,182.015,207.772,187.669,207.772,194.646z M166.976,194.646c0,6.976-5.655,12.631-12.631,12.631
	s-12.631-5.655-12.631-12.631s5.655-12.631,12.631-12.631S166.976,187.669,166.976,194.646z M113.569,182.015
	c6.976,0,12.631,5.655,12.631,12.631s-5.655,12.631-12.631,12.631c-6.977,0-12.632-5.655-12.632-12.631
	S106.592,182.015,113.569,182.015z M83.711,242.082h427.857v242.372c0,6.046-4.93,10.976-10.976,10.976H94.687
	c-6.046,0-10.976-4.93-10.976-10.976V242.082z M500.593,528.486H94.687c-6.046,0-10.976-4.93-10.976-10.976v-5.655
	c3.404,1.358,7.088,2.158,10.976,2.158h405.906c3.888,0,7.571-0.8,10.976-2.158v5.655
	C511.569,523.575,506.639,528.486,500.593,528.486z"/>
<polygon points="269.606,437.408 269.141,439.102 269.141,439.102 262.593,463.229 280.544,468.084 333.245,274.32 315.293,269.428 
	"/>
<path d="M248.735,443.249l5.543-20.406l-55.249-52.534l71.173-67.676l-12.817-13.487l-78.261,74.41
	c-1.842,1.768-2.883,4.204-2.883,6.734c0,2.53,1.06,4.985,2.883,6.734L248.735,443.249z"/>
<path d="M325.06,437.613l12.725,13.579l78.874-73.777c1.86-1.749,2.921-4.186,2.939-6.715s-1.005-5.004-2.827-6.753l-70.169-67.806
	l-5.563,20.481l55.789,53.892L325.06,437.613z"/>
</svg>
