<?xml version="1.0" encoding="utf-8"?>
<!-- Generator: Adobe Illustrator 16.0.0, SVG Export Plug-In . SVG Version: 6.00 Build 0)  -->
<!DOCTYPE svg PUBLIC "-//W3C//DTD SVG 1.1//EN" "http://www.w3.org/Graphics/SVG/1.1/DTD/svg11.dtd">
<svg version="1.1" id="레이어_1" xmlns="http://www.w3.org/2000/svg" xmlns:xlink="http://www.w3.org/1999/xlink" x="0px"
	 y="0px" width="57.146px" height="57.146px" viewBox="0 0 57.146 57.146" enable-background="new 0 0 57.146 57.146"
	 xml:space="preserve">
<path fill="#333333" d="M43.467,27.085H13.677c-0.822,0-1.488,0.666-1.488,1.488s0.666,1.488,1.488,1.488h29.788
	c0.822,0,1.488-0.666,1.488-1.488S44.289,27.085,43.467,27.085z M28.573,0C12.816,0,0,12.817,0,28.573s12.816,28.573,28.573,28.573
	c15.756,0,28.573-12.817,28.573-28.573S44.329,0,28.573,0z M28.573,54.17c-14.114,0-25.598-11.482-25.598-25.597
	S14.459,2.976,28.573,2.976S54.17,14.459,54.17,28.573S42.687,54.17,28.573,54.17z"/>
</svg>
