<?xml version="1.0" encoding="utf-8"?>
<!-- Generator: Adobe Illustrator 16.0.0, SVG Export Plug-In . SVG Version: 6.00 Build 0)  -->
<!DOCTYPE svg PUBLIC "-//W3C//DTD SVG 1.1//EN" "http://www.w3.org/Graphics/SVG/1.1/DTD/svg11.dtd">
<svg version="1.1" id="레이어_1" xmlns="http://www.w3.org/2000/svg" xmlns:xlink="http://www.w3.org/1999/xlink" x="0px"
	 y="0px" width="57.146px" height="57.146px" viewBox="270.067 317.962 57.146 57.146"
	 enable-background="new 270.067 317.962 57.146 57.146" xml:space="preserve">
<path fill="#333333" d="M313.534,345.047h-29.789c-0.822,0-1.488,0.666-1.488,1.488s0.666,1.488,1.488,1.488h29.788
	c0.822,0,1.488-0.666,1.488-1.488S314.356,345.047,313.534,345.047z M298.64,317.962c-15.756,0-28.573,12.817-28.573,28.573
	s12.817,28.573,28.573,28.573s28.573-12.817,28.573-28.573S314.396,317.962,298.64,317.962z M298.64,372.132
	c-14.114,0-25.597-11.483-25.597-25.597s11.483-25.597,25.597-25.597s25.597,11.483,25.597,25.597S312.754,372.132,298.64,372.132z"
	/>
</svg>
