<?xml version="1.0" encoding="utf-8"?>
<!-- Generator: Adobe Illustrator 16.0.0, SVG Export Plug-In . SVG Version: 6.00 Build 0)  -->
<!DOCTYPE svg PUBLIC "-//W3C//DTD SVG 1.1//EN" "http://www.w3.org/Graphics/SVG/1.1/DTD/svg11.dtd">
<svg version="1.1" id="레이어_1" xmlns="http://www.w3.org/2000/svg" xmlns:xlink="http://www.w3.org/1999/xlink" x="0px"
	 y="0px" width="45.289px" height="45.291px" viewBox="0 0 45.289 45.291" enable-background="new 0 0 45.289 45.291"
	 xml:space="preserve">
<g>
	<path fill="#FF5753" d="M16.534,45.29L16.534,45.29c-1.564,0-3.029-0.603-4.125-1.697L1.698,32.882
		C0.603,31.785,0,30.319,0.001,28.755c0.001-1.566,0.604-3.031,1.699-4.125L24.639,1.691c1.037-1.041,2.431-1.642,3.923-1.69
		l10.912,0.006c3.203,0,5.813,2.608,5.814,5.813v10.866c-0.051,1.539-0.648,2.931-1.689,3.969L20.659,43.593
		C19.567,44.687,18.103,45.29,16.534,45.29z M28.608,2.975c-0.682,0.022-1.359,0.313-1.862,0.817L3.804,26.733
		c-0.533,0.533-0.826,1.251-0.826,2.021c0,0.771,0.291,1.489,0.824,2.021l10.713,10.711c0.532,0.533,1.25,0.826,2.02,0.826l0,0
		c0.771,0,1.488-0.293,2.021-0.826l22.939-22.939c0.506-0.504,0.795-1.183,0.818-1.914V5.819c-0.002-1.564-1.277-2.839-2.842-2.84
		L28.608,2.975z M34.606,16.136c-3.008,0-5.455-2.446-5.455-5.453c0-3.008,2.447-5.455,5.455-5.456l0,0
		c3.008,0,5.453,2.446,5.455,5.454C40.062,13.69,37.614,16.136,34.606,16.136z M34.606,8.203c-1.367,0-2.479,1.112-2.479,2.478
		c0,1.367,1.111,2.479,2.479,2.479c1.367,0,2.479-1.112,2.479-2.479C37.083,9.315,35.974,8.203,34.606,8.203z"/>
</g>
</svg>
