<?xml version="1.0" encoding="utf-8"?>
<!-- Generator: Adobe Illustrator 16.0.0, SVG Export Plug-In . SVG Version: 6.00 Build 0)  -->
<!DOCTYPE svg PUBLIC "-//W3C//DTD SVG 1.1//EN" "http://www.w3.org/Graphics/SVG/1.1/DTD/svg11.dtd">
<svg version="1.1" id="레이어_1" xmlns="http://www.w3.org/2000/svg" xmlns:xlink="http://www.w3.org/1999/xlink" x="0px"
	 y="0px" width="45.289px" height="45.291px" viewBox="274.995 323.89 45.289 45.291"
	 enable-background="new 274.995 323.89 45.289 45.291" xml:space="preserve">
<g>
	<path fill="#333333" d="M291.53,369.181L291.53,369.181c-1.565,0-3.03-0.603-4.125-1.698l-10.712-10.711
		c-1.095-1.096-1.698-2.562-1.697-4.127c0.001-1.566,0.604-3.031,1.699-4.125l22.939-22.938c1.037-1.041,2.431-1.642,3.922-1.691
		l10.912,0.006c3.204,0,5.814,2.609,5.816,5.814l-0.001,10.866c-0.05,1.539-0.649,2.931-1.69,3.969l-22.938,22.938
		C294.562,368.577,293.097,369.181,291.53,369.181z M303.603,326.865c-0.681,0.022-1.359,0.314-1.862,0.818l-22.942,22.941
		c-0.533,0.533-0.826,1.251-0.827,2.022c0,0.771,0.292,1.489,0.825,2.021l10.712,10.711c0.533,0.533,1.25,0.826,2.021,0.826l0,0
		c0.771,0,1.488-0.293,2.021-0.826l22.94-22.94c0.505-0.503,0.794-1.182,0.818-1.913v-10.815c-0.002-1.564-1.277-2.839-2.842-2.84
		L303.603,326.865z M309.601,340.027c-3.007,0-5.454-2.447-5.454-5.454c0-3.008,2.446-5.455,5.454-5.456h0.001
		c3.007,0,5.453,2.447,5.454,5.454C315.056,337.581,312.609,340.027,309.601,340.027z M309.602,332.094
		c-1.367,0-2.479,1.112-2.479,2.478c0.001,1.366,1.112,2.478,2.479,2.479c1.366,0,2.478-1.112,2.478-2.479
		C312.078,333.206,310.968,332.094,309.602,332.094z"/>
</g>
</svg>
