<?xml version="1.0" encoding="utf-8"?>
<!-- Generator: Adobe Illustrator 16.0.0, SVG Export Plug-In . SVG Version: 6.00 Build 0)  -->
<!DOCTYPE svg PUBLIC "-//W3C//DTD SVG 1.1//EN" "http://www.w3.org/Graphics/SVG/1.1/DTD/svg11.dtd">
<svg version="1.1" id="레이어_1" xmlns="http://www.w3.org/2000/svg" xmlns:xlink="http://www.w3.org/1999/xlink" x="0px"
	 y="0px" width="166.774px" height="144.394px" viewBox="206.503 323.801 166.774 144.394"
	 enable-background="new 206.503 323.801 166.774 144.394" xml:space="preserve">
<g>
	<g>
		<path d="M372.669,423.253c-8.605-21.994-24.862-39.206-45.9-48.769c11.477-6.694,20.081-17.213,25.819-29.645
			c1.912-4.781,0-10.519-4.781-12.431c-4.78-1.913-10.52,0-12.432,4.781c-6.693,14.344-19.125,24.862-33.469,27.731
			c4.781-3.825,7.649-10.52,7.649-18.169c0-12.432-8.605-22.95-20.082-22.95c-11.475,0-20.081,10.519-20.081,22.95
			c0,6.693,2.869,13.388,7.65,17.212c-14.344-3.824-25.819-15.3-31.557-28.688c-1.912-4.781-7.649-7.649-12.431-5.737
			c-4.781,1.913-7.65,7.65-5.738,12.432c4.781,13.388,14.344,24.862,25.819,32.513c-20.081,8.605-36.338,24.862-45.9,45.899
			c-1.912,4.781,0,10.52,4.781,12.433c4.781,1.911,10.519,0,12.432-4.781c6.693-14.344,17.212-25.819,30.6-33.469
			c-5.737,7.649-8.606,17.212-8.606,27.731c0,25.818,19.125,45.899,43.031,45.899c23.906,0,43.031-21.037,43.031-45.899
			c0-10.52-2.868-20.082-8.604-27.731c14.344,7.649,25.817,20.081,31.556,36.337c1.913,3.824,4.781,5.737,8.605,5.737
			c0.956,0,1.912,0,3.825-0.957C371.713,433.771,374.581,428.034,372.669,423.253z"/>
	</g>
</g>
</svg>
