<?xml version="1.0" encoding="utf-8"?>
<!-- Generator: Adobe Illustrator 16.0.0, SVG Export Plug-In . SVG Version: 6.00 Build 0)  -->
<!DOCTYPE svg PUBLIC "-//W3C//DTD SVG 1.1//EN" "http://www.w3.org/Graphics/SVG/1.1/DTD/svg11.dtd">
<svg version="1.1" id="레이어_1" xmlns="http://www.w3.org/2000/svg" xmlns:xlink="http://www.w3.org/1999/xlink" x="0px"
	 y="0px" width="335px" height="144.388px" viewBox="55.944 38.69 335 144.388" enable-background="new 55.944 38.69 335 144.388"
	 xml:space="preserve">
<g>
	<g>
		<path d="M177.934,128.661c-5.613-14.346-16.217-25.571-29.938-31.809c7.486-4.366,13.097-11.227,16.839-19.336
			c1.247-3.118,0-6.861-3.119-8.108c-3.117-1.248-6.861,0-8.108,3.119c-4.366,9.355-12.474,16.214-21.83,18.086
			c3.118-2.495,4.988-6.861,4.988-11.851c0-8.108-5.612-14.969-13.098-14.969c-7.483,0.001-13.097,6.862-13.097,14.97
			c0,4.365,1.872,8.732,4.99,11.226c-9.356-2.494-16.84-9.979-20.583-18.711c-1.247-3.118-4.988-4.989-8.107-3.742
			c-3.119,1.248-4.99,4.99-3.743,8.109c3.118,8.732,9.356,16.215,16.84,21.207c-13.097,5.611-23.701,16.215-29.938,29.936
			c-1.247,3.118,0,6.862,3.119,8.11c3.118,1.245,6.862,0,8.108-3.118c4.365-9.355,11.227-16.841,19.959-21.83
			c-3.742,4.988-5.613,11.226-5.613,18.087c0,16.839,12.474,29.937,28.066,29.937s28.066-13.721,28.066-29.937
			c0-6.862-1.87-13.099-5.612-18.087c9.356,4.988,16.838,13.098,20.582,23.7c1.249,2.493,3.118,3.741,5.612,3.741
			c0.625,0,1.248,0,2.496-0.624C177.31,135.521,179.18,131.778,177.934,128.661z"/>
	</g>
</g>
<rect x="196.752" y="38.69" fill="none" width="254" height="144.388"/>
<text transform="matrix(1 0 0 1 196.7522 134.0908)" font-family="'AGaramondPro-Regular'" font-size="80">Fabre</text>
</svg>
