<?xml version="1.0" encoding="utf-8"?>
<!-- Generator: Adobe Illustrator 16.0.0, SVG Export Plug-In . SVG Version: 6.00 Build 0)  -->
<!DOCTYPE svg PUBLIC "-//W3C//DTD SVG 1.1//EN" "http://www.w3.org/Graphics/SVG/1.1/DTD/svg11.dtd">
<svg version="1.1" id="레이어_1" xmlns="http://www.w3.org/2000/svg" xmlns:xlink="http://www.w3.org/1999/xlink" x="0px"
	 y="0px" width="466.846px" height="478.424px" viewBox="66.979 140.979 466.846 478.424"
	 enable-background="new 66.979 140.979 466.846 478.424" xml:space="preserve">
<title>Campaign</title>
<g>
	<g>
		<g>
			<path fill="#231815" d="M443.595,140.979c-13.489,0.37-26.382,5.643-36.265,14.831c-134.15,74.251-292.508,80.854-293.369,80.854
				c-26.792,0-46.981,36.36-46.981,84.873c0,48.513,20.189,85.063,46.12,85.063l0,0c0.479,0,13.014,1.148,33.012,3.924v147.928
				c0,33.586,23.537,60.951,52.435,60.951h30.428c28.706,0,52.436-27.365,52.436-60.951v-120.85
				c45.915,11.4,89.917,29.451,130.609,53.584h0.957c8.886,6.635,19.628,10.316,30.715,10.525
				c50.521,0,90.135-79.322,90.135-180.653C533.825,219.728,494.212,140.979,443.595,140.979z M372.597,321.537
				c0.009-13.978,0.872-27.942,2.583-41.814h29.95c10.716,0,22.772,17.223,22.772,41.91c0,24.687-11.961,41.813-22.772,41.813
				h-29.95C373.465,349.542,372.602,335.546,372.597,321.537z M353.46,321.537c-1.144,45.256,8.327,90.151,27.652,131.088
				c-70.232-32.629-157.21-49.947-212.611-58.369c-19.873-45.724-20.149-97.593-0.766-143.526
				c73.665-9.475,145.53-29.755,213.281-60.186C361.739,231.461,352.302,276.321,353.46,321.537z M262.271,501.328h-38.943V477.98
				h38.943V501.328z M86.116,321.537c0-37.7,14.64-65.735,28.132-65.735c1.723,0,13.3-0.479,31.959-2.488
				c-16.154,44.607-16.154,93.466,0,138.074c-18.563-2.393-30.619-3.541-32.725-3.732
				C100.756,387.559,86.116,359.333,86.116,321.537z M165.344,558.355V413.299c11.674,1.816,24.781,4.018,38.943,6.602v180.365
				h-5.646c-18.468,0-33.394-19.137-33.394-41.814L165.344,558.355z M228.974,600.266h-5.646v-79.801h38.943v38.273
				C262.271,581.129,247.346,600.266,228.974,600.266z M262.271,433.201v25.643h-38.943v-35.115
				c12.535,2.582,25.644,5.549,39.039,8.898C262.367,432.818,262.271,433.01,262.271,433.201z M444.073,483.053
				c-7.575-0.076-14.924-2.594-20.955-7.178c-0.239-0.27-0.495-0.525-0.766-0.766l-0.766-0.479
				c-19.137-15.021-35.499-49.086-43.44-92.047h27.079c23.442,0,41.909-26.792,41.909-60.951c0-34.16-18.467-61.047-41.909-61.047
				h-27.175c10.908-58.272,36.552-100.469,65.544-100.469c38.274,0,70.998,73.964,70.998,161.516
				c0,87.551-32.438,161.42-70.998,161.42H444.073z"/>
		</g>
	</g>
</g>
</svg>
