<?xml version="1.0" encoding="utf-8"?>
<!-- Generator: Adobe Illustrator 16.0.0, SVG Export Plug-In . SVG Version: 6.00 Build 0)  -->
<!DOCTYPE svg PUBLIC "-//W3C//DTD SVG 1.1//EN" "http://www.w3.org/Graphics/SVG/1.1/DTD/svg11.dtd">
<svg version="1.1" id="레이어_1" xmlns="http://www.w3.org/2000/svg" xmlns:xlink="http://www.w3.org/1999/xlink" x="0px"
	 y="0px" width="474.337px" height="481.339px" viewBox="60.458 107.028 474.337 481.339"
	 enable-background="new 60.458 107.028 474.337 481.339" xml:space="preserve">
<g>
	<path d="M528.188,395.374c-5.977-7.746-15.387-11.633-25.169-11.633H156.185c-17.419,0-30.618,10.68-35.269,27.524
		c0,0,0-0.635,0-0.633L72.745,588.367h403.653c8.301,0,15.567-6.213,17.672-14.242l39.698-151.334
		C536.252,413.33,534.166,403.119,528.188,395.374z"/>
	<path d="M156.185,367.463h63.39h13.255h9.003V136.241c0-8.89,12.241-8.285,13.769-8.285h159.333
		c4.629,2.325,5.947,1.379,5.947,6.083v34.029c0,10.831,10.622,24.997,21.598,24.997h28.004c5.125,0,8.531-1.502,8.531,4.39v170.008
		h18.603V186.216c0-7.341-0.734-16.691-7.647-23.881l-45.514-46.523c-6.013-6.255-13.801-8.785-23.967-8.785H255.601
		c-17.323,0-34.696,10.538-34.696,29.213v120.058c-16.277-2.058-31.733-7.299-38.205-23.027
		c-3.878-9.432-12.047-16.954-22.246-16.954H81.199c-10.998,0-20.741,8.667-20.741,19.665v26.86v4.339v294.05l41.116-153.413
		C108.041,383.212,130.743,367.463,156.185,367.463z"/>
</g>
</svg>
