<?xml version="1.0" encoding="utf-8"?>
<!-- Generator: Adobe Illustrator 16.0.0, SVG Export Plug-In . SVG Version: 6.00 Build 0)  -->
<!DOCTYPE svg PUBLIC "-//W3C//DTD SVG 1.1//EN" "http://www.w3.org/Graphics/SVG/1.1/DTD/svg11.dtd">
<svg version="1.1" id="레이어_1" xmlns="http://www.w3.org/2000/svg" xmlns:xlink="http://www.w3.org/1999/xlink" x="0px"
	 y="0px" width="164.318px" height="164.318px" viewBox="0 0 164.318 164.318" enable-background="new 0 0 164.318 164.318"
	 xml:space="preserve">
<path fill="#FF5753" d="M161.805,149.679l-39.686-39.686c20.752-26.738,18.873-65.473-5.67-90.012C103.563,7.095,86.434,0,68.214,0
	C49.993,0,32.865,7.096,19.98,19.982C7.094,32.865-0.001,49.995-0.001,68.216c0,18.222,7.097,35.353,19.979,48.237
	c12.887,12.884,30.015,19.979,48.235,19.979c15.331,0,29.875-5.038,41.784-14.306l39.682,39.681
	c1.674,1.675,3.869,2.512,6.063,2.512s4.391-0.837,6.063-2.512C165.157,158.457,165.157,153.028,161.805,149.679z M32.107,104.323
	c-9.646-9.646-14.958-22.47-14.958-36.108c0-13.641,5.313-26.462,14.959-36.107c9.645-9.646,22.467-14.957,36.106-14.957
	c13.639,0,26.464,5.312,36.111,14.957c19.908,19.908,19.908,52.305,0,72.215c-9.646,9.646-22.472,14.958-36.111,14.958
	C54.574,119.281,41.752,113.969,32.107,104.323z"/>
</svg>
