<?xml version="1.0" encoding="utf-8"?>
<!-- Generator: Adobe Illustrator 16.0.0, SVG Export Plug-In . SVG Version: 6.00 Build 0)  -->
<!DOCTYPE svg PUBLIC "-//W3C//DTD SVG 1.1//EN" "http://www.w3.org/Graphics/SVG/1.1/DTD/svg11.dtd">
<svg version="1.1" id="레이어_1" xmlns="http://www.w3.org/2000/svg" xmlns:xlink="http://www.w3.org/1999/xlink" x="0px"
	 y="0px" width="164.318px" height="164.319px" viewBox="12.483 467.379 164.318 164.319"
	 enable-background="new 12.483 467.379 164.318 164.319" xml:space="preserve">
<path fill="#333333" d="M174.288,617.058l-39.685-39.686c20.751-26.738,18.873-65.473-5.67-90.012
	c-12.886-12.886-30.016-19.981-48.236-19.981c-18.221,0-35.35,7.096-48.234,19.981c-12.886,12.884-19.981,30.014-19.981,48.235
	s7.097,35.352,19.979,48.237c12.886,12.884,30.014,19.979,48.235,19.979c15.33,0,29.875-5.039,41.784-14.306l39.681,39.681
	c1.674,1.674,3.869,2.511,6.063,2.511c2.193,0,4.391-0.837,6.063-2.511C177.639,625.836,177.639,620.406,174.288,617.058z
	 M44.59,571.702c-9.646-9.646-14.958-22.47-14.958-36.108c0-13.641,5.312-26.462,14.959-36.108
	c9.644-9.646,22.466-14.957,36.106-14.957c13.639,0,26.464,5.312,36.11,14.957c19.909,19.909,19.909,52.305,0,72.215
	c-9.646,9.646-22.471,14.958-36.11,14.958C67.057,586.66,54.235,581.348,44.59,571.702z"/>
</svg>
