<?xml version="1.0" encoding="utf-8"?>
<!-- Generator: Adobe Illustrator 16.0.0, SVG Export Plug-In . SVG Version: 6.00 Build 0)  -->
<!DOCTYPE svg PUBLIC "-//W3C//DTD SVG 1.1//EN" "http://www.w3.org/Graphics/SVG/1.1/DTD/svg11.dtd">
<svg version="1.1" id="레이어_1" xmlns="http://www.w3.org/2000/svg" xmlns:xlink="http://www.w3.org/1999/xlink" x="0px"
	 y="0px" width="487.34px" height="483.862px" viewBox="66.938 80.438 487.34 483.862"
	 enable-background="new 66.938 80.438 487.34 483.862" xml:space="preserve">
<g>
	<g>
		<path d="M553.669,519.356c-8.606-21.994-24.862-39.206-45.9-48.769c11.476-6.694,20.081-17.213,25.819-29.645
			c1.912-4.781,0-10.519-4.781-12.431c-4.781-1.913-10.52,0-12.432,4.781c-6.693,14.344-19.125,24.862-33.469,27.731
			c4.781-3.825,7.65-10.52,7.65-18.169c0-12.432-8.606-22.95-20.082-22.95c-11.475,0-20.081,10.519-20.081,22.95
			c0,6.693,2.869,13.388,7.65,17.212c-14.344-3.824-25.819-15.3-31.557-28.688c-1.912-4.781-7.649-7.649-12.431-5.737
			c-4.781,1.913-7.65,7.65-5.738,12.432c4.781,13.388,14.344,24.862,25.819,32.513c-20.081,8.605-36.338,24.862-45.9,45.899
			c-1.912,4.781,0,10.519,4.781,12.432c4.781,1.912,10.519,0,12.432-4.781c6.693-14.344,17.212-25.819,30.6-33.469
			c-5.737,7.649-8.606,17.212-8.606,27.731c0,25.818,19.125,45.899,43.031,45.899s43.031-21.037,43.031-45.899
			c0-10.52-2.868-20.082-8.605-27.731c14.344,7.649,25.818,20.081,31.556,36.337c1.913,3.825,4.781,5.738,8.606,5.738
			c0.956,0,1.912,0,3.825-0.957C552.713,529.875,555.581,524.138,553.669,519.356z"/>
		<path d="M364.331,480.15c-1.912,0.956-3.825,0.956-5.737,1.912c-7.65,2.869-13.388,8.606-16.256,16.256l-10.52,37.294
			c-0.956,1.913-2.868,3.825-4.781,3.825h-42.075c-1.913,0-3.825-0.956-4.781-3.825l-10.519-38.25
			c-1.913-7.649-7.65-13.388-16.256-16.256c-8.606-2.869-17.212-6.694-24.862-10.519c-7.65-3.825-15.3-3.825-22.95,0l-34.425,19.125
			c-1.913,0.956-3.825,0.956-5.738-0.957l-29.644-29.644c-1.913-1.912-1.913-3.825-0.957-5.737l19.125-34.425
			c3.825-6.694,3.825-15.3,0-22.95c-3.825-7.65-7.65-16.256-10.519-24.862c-2.869-7.65-8.606-13.388-16.256-16.256l-37.293-10.519
			c-1.913,0-3.825-1.913-3.825-3.825v-42.075c0-1.913,0.956-3.825,3.825-4.781l38.25-10.519c7.65-1.913,13.387-7.65,16.256-16.256
			c2.869-8.606,6.694-17.212,10.519-24.862c3.825-7.65,3.825-15.3,0-22.95l-19.125-34.425c-0.957-1.913-0.957-3.825,0.956-5.738
			l29.644-29.644c1.912-1.913,3.825-1.913,5.737-0.957l34.425,19.125c6.694,3.825,15.3,3.825,22.95,0
			c7.65-3.825,16.256-7.65,24.862-10.519c7.65-2.869,13.388-8.606,16.256-16.256l10.519-37.293c0-1.913,1.912-3.825,3.825-3.825
			h42.075c1.913,0,3.825,0.956,4.781,3.825l10.52,38.25c1.912,7.65,7.649,13.387,16.256,16.256
			c8.606,2.869,17.213,6.694,24.862,10.519c7.65,3.825,15.3,3.825,22.95,0l34.425-19.125c1.913-0.957,3.825-0.957,5.737,0.956
			l29.645,29.644c1.912,1.912,1.912,3.825,0.956,5.737l-19.125,34.425c-3.825,6.694-3.825,15.3,0,22.95s7.649,16.256,10.519,24.862
			c2.869,7.65,8.606,13.388,16.256,16.256l37.294,10.519c1.913,0.956,3.825,2.869,3.825,4.781v42.075
			c0,1.913-0.956,3.825-3.825,4.781l-38.25,10.519c-7.649,1.912-13.388,7.65-16.256,16.256c-0.956,3.825-2.869,7.65-3.825,11.475
			c-1.912,4.781,0,10.519,5.737,12.431c4.781,1.913,10.519,0,12.432-5.737c1.912-3.825,2.868-8.606,4.781-12.431
			c0.956-1.913,1.912-2.869,2.868-2.869l38.25-10.519c10.52-2.869,17.213-12.431,17.213-22.95v-42.075
			c0-10.519-6.693-20.081-17.213-22.95l-37.294-10.519c-1.912,0-2.868-1.913-2.868-2.869c-2.869-9.563-6.694-19.125-11.476-27.731
			c-0.956-1.913-0.956-2.869,0-4.781l19.125-34.425c4.781-9.563,3.825-21.038-3.824-28.688l-29.645-29.644
			c-7.649-7.65-19.125-9.563-28.688-3.825l-34.425,19.125c-0.956,0.956-2.868,0.956-4.781,0
			c-8.606-4.781-18.169-8.606-27.731-11.475c-1.912-0.956-2.868-1.913-2.868-2.869l-10.519-38.25
			c-5.737-13.388-15.3-21.038-25.819-21.038h-42.075c-10.519,0-20.081,6.694-22.95,17.212l-10.519,37.294
			c0,1.913-1.913,2.869-3.825,2.869c-9.563,2.869-19.125,6.694-27.731,11.475c-1.913,0.956-2.869,0.956-4.781,0l-34.425-19.125
			c-9.563-4.781-21.038-3.825-28.688,3.825L122.4,163.631c-7.65,7.65-9.563,19.125-3.825,28.688l19.125,34.425
			c0.956,0.957,0.956,2.869,0,4.781c-4.781,8.606-8.606,18.169-11.475,27.731c-0.957,1.913-1.913,2.869-2.869,2.869l-38.25,10.519
			c-10.519,5.738-18.169,15.3-18.169,25.819v42.075c0,10.519,6.694,20.081,17.212,22.95l37.294,10.519
			c1.913,0,2.869,1.913,2.869,2.869c2.869,9.563,6.694,19.125,11.475,27.731c0.956,1.912,0.956,2.868,0,4.781l-19.125,34.425
			c-4.781,9.563-3.825,21.037,3.825,28.688l29.644,29.644c7.65,7.65,19.125,9.563,28.688,3.825l34.425-19.125
			c0.957-0.956,2.869-0.956,4.781,0c8.606,4.781,18.169,8.606,27.731,11.475c1.913,0.957,2.869,1.913,2.869,2.869l10.519,38.25
			c2.869,10.519,12.432,17.213,22.95,17.213h42.075c10.519,0,20.081-6.694,22.95-17.213l10.519-37.294
			c0-1.912,1.912-2.868,3.825-2.868c1.912-0.957,3.824-0.957,5.737-1.913c4.781-1.912,7.649-7.649,5.737-12.431
			C374.85,480.15,369.112,478.237,364.331,480.15z"/>
		<path d="M306,214.313c-58.331,0-105.188,47.813-105.188,105.188S248.625,424.688,306,424.688S411.188,376.875,411.188,319.5
			S364.331,214.313,306,214.313z M306,405.563c-47.813,0-86.063-39.206-86.063-86.063s39.206-86.063,86.063-86.063
			c47.813,0,86.063,39.206,86.063,86.063S353.813,405.563,306,405.563z"/>
	</g>
</g>
</svg>
