<?xml version="1.0" encoding="utf-8"?>
<!-- Generator: Adobe Illustrator 16.0.0, SVG Export Plug-In . SVG Version: 6.00 Build 0)  -->
<!DOCTYPE svg PUBLIC "-//W3C//DTD SVG 1.1//EN" "http://www.w3.org/Graphics/SVG/1.1/DTD/svg11.dtd">
<svg version="1.1" id="레이어_1" xmlns="http://www.w3.org/2000/svg" xmlns:xlink="http://www.w3.org/1999/xlink" x="0px"
	 y="0px" width="474.025px" height="470.644px" viewBox="0 0 474.025 470.644" enable-background="new 0 0 474.025 470.644"
	 xml:space="preserve">
<g>
	<g>
		<path d="M84.642,252.064c0-5.581-3.722-9.301-9.303-9.301c-31.623,0-56.736-27.904-56.736-62.318s27.904-62.319,62.317-62.319
			c2.79,0,4.65,0,7.441,0l14.882,1.86l-4.649-13.952c-2.791-7.441-3.722-13.952-3.722-21.393c0-36.275,29.765-65.109,65.108-65.109
			c33.483,0,61.389,25.113,65.108,58.598l0.931,11.162l11.161-3.721c4.65-1.86,10.23-1.86,14.882-1.86
			c24.184,0,44.646,16.742,49.297,39.996l1.859,9.302l9.303-1.86c3.72-0.93,7.439-0.93,10.229-0.93
			c31.625,0,56.738,25.113,56.738,56.738c0,26.043-13.021,56.736-51.157,56.736h-62.318c-5.581,0-9.301,3.721-9.301,9.301
			c0,5.582,3.72,9.301,9.301,9.301h62.318c47.438,0,69.76-39.064,69.76-75.34c0-42.785-36.274-78.13-79.99-75.339
			c-9.302-27.904-35.346-46.506-65.108-46.506c-3.721,0-6.511,0-10.231,0.93C232.531,26.974,199.046,0,159.982,0
			c-46.506,0-83.711,37.205-83.711,83.711c0,4.651,0,10.231,0.93,14.882C34.415,100.453,0,136.728,0,179.514
			c0,44.646,33.484,80.921,75.341,80.921C80.921,261.365,84.642,256.714,84.642,252.064z"/>
		<path d="M245.552,381.351c-17.672-19.533-18.602-54.879-17.672-70.689h54.877L170.213,191.605L57.668,310.662h52.087
			c1.86,33.484,13.952,60.459,36.275,79.061c28.833,23.254,67.898,28.834,96.731,28.834c22.323,0,39.065-2.791,40.927-3.721
			l-1.86-18.602C266.015,396.234,254.855,390.652,245.552,381.351z M158.121,374.839c-19.532-16.742-29.764-40.924-29.764-73.479
			v-9.301h-26.974l68.828-72.55l68.829,72.55h-27.902l-0.932,8.371c0,2.789-6.511,61.389,22.323,93.941
			c1.86,1.861,3.721,3.721,5.581,5.582C212.069,398.093,180.445,393.443,158.121,374.839z"/>
		<path d="M473.433,426.927c-8.37-21.393-24.183-38.135-44.646-47.436c11.161-6.512,19.532-16.742,25.113-28.834
			c1.859-4.65,0-10.232-4.65-12.092c-4.651-1.861-10.23,0-12.092,4.648c-6.511,13.953-18.604,24.186-32.555,26.975
			c4.649-3.721,7.44-10.23,7.44-17.672c0-12.092-8.371-22.322-19.533-22.322c-11.161,0-19.531,10.23-19.531,22.322
			c0,6.512,2.79,13.021,7.439,16.742c-13.951-3.721-25.113-14.883-30.693-27.904c-1.859-4.65-7.44-7.439-12.092-5.58
			c-4.65,1.859-7.44,7.439-5.581,12.092c4.65,13.021,13.952,24.184,25.113,31.625c-19.532,8.371-35.345,24.182-44.646,44.645
			c-1.86,4.652,0,10.232,4.649,12.094c4.65,1.859,10.231,0,12.092-4.65c6.512-13.953,16.742-25.113,29.765-32.555
			c-5.581,7.439-8.371,16.74-8.371,26.973c0,25.113,18.603,44.646,41.854,44.646s41.855-20.463,41.855-44.646
			c0-10.23-2.79-19.531-8.371-26.973c13.952,7.439,25.113,19.531,30.694,35.344c1.859,3.721,4.649,5.582,8.371,5.582
			c0.931,0,1.859,0,3.721-0.932C472.504,437.16,475.294,431.578,473.433,426.927z"/>
	</g>
</g>
</svg>
