<?xml version="1.0" encoding="utf-8"?>
<!-- Generator: Adobe Illustrator 16.0.0, SVG Export Plug-In . SVG Version: 6.00 Build 0)  -->
<!DOCTYPE svg PUBLIC "-//W3C//DTD SVG 1.1//EN" "http://www.w3.org/Graphics/SVG/1.1/DTD/svg11.dtd">
<svg version="1.1" id="레이어_1" xmlns="http://www.w3.org/2000/svg" xmlns:xlink="http://www.w3.org/1999/xlink" x="0px"
	 y="0px" width="595.279px" height="572.458px" viewBox="0 60.382 595.279 572.458"
	 enable-background="new 0 60.382 595.279 572.458" xml:space="preserve">
<g>
	<g>
		<path d="M297.64,88.731c14.787,0,28.288,8.399,34.848,21.668l49.289,141.504l151.666,4.5
			c14.638,2.119,26.799,12.375,31.371,26.436c4.577,14.066,0.75,29.514-9.822,39.842l-121.211,89.25l44.438,146.98
			c2.506,14.572-3.488,29.323-15.459,38.003c-6.769,4.923-14.781,7.435-22.847,7.435c-6.191,0-12.395-1.476-18.079-4.477
			l-124.175-92.685l-124.218,92.685c-5.702,3.001-11.899,4.477-18.078,4.477c-8.061,0-16.079-2.512-22.848-7.435
			c-11.971-8.68-17.965-23.431-15.453-38.003l44.449-146.98L40.3,322.682c-10.596-10.328-14.405-25.776-9.821-39.842
			c4.56-14.061,16.721-24.317,31.359-26.436l151.695-4.5l49.247-141.504C269.334,97.136,282.841,88.731,297.64,88.731
			 M297.64,60.223c-25.841,0-48.985,14.388-60.421,37.556c-0.523,1.042-0.982,2.131-1.357,3.238l-42.813,122.961l-132.057,3.923
			c-1.096,0.036-2.185,0.131-3.262,0.274c-25.562,3.721-46.391,21.288-54.397,45.873c-7.959,24.543-1.435,51.009,17.067,69.046
			c0.946,0.911,1.94,1.768,2.994,2.548l105.001,77.315L89.775,550.662c-0.352,1.132-0.619,2.269-0.816,3.441
			c-4.363,25.466,5.911,50.712,26.806,65.873c11.578,8.436,25.275,12.864,39.599,12.864c10.863,0,21.716-2.667,31.354-7.727
			c1.31-0.685,2.577-1.488,3.773-2.381l107.169-79.964l107.126,79.964c1.19,0.893,2.465,1.696,3.792,2.381
			c9.626,5.06,20.454,7.727,31.336,7.727c14.328,0,28.025-4.429,39.598-12.864c20.9-15.167,31.181-40.407,26.812-65.873
			c-0.202-1.173-0.477-2.31-0.815-3.441l-38.61-127.705l104.989-77.315c1.066-0.78,2.055-1.631,3.001-2.548
			c18.495-18.031,25.025-44.503,17.043-69.046c-7.983-24.585-28.824-42.152-54.403-45.873c-1.071-0.137-2.154-0.238-3.238-0.274
			l-132.045-3.923l-42.849-122.961c-0.375-1.113-0.839-2.196-1.345-3.238C346.625,74.611,323.475,60.223,297.64,60.223
			L297.64,60.223z"/>
	</g>
</g>
</svg>
